<?xml version="1.0" standalone="no"?>
<!DOCTYPE svg PUBLIC "-//W3C//DTD SVG 20010904//EN"
 "http://www.w3.org/TR/2001/REC-SVG-20010904/DTD/svg10.dtd">
<svg version="1.0" xmlns="http://www.w3.org/2000/svg"
 width="980.000000pt" height="980.000000pt" viewBox="0 0 980.000000 980.000000"
 preserveAspectRatio="xMidYMid meet">
<metadata>
Created by potrace 1.11, written by Peter Selinger 2001-2013
</metadata>
<g transform="translate(0.000000,980.000000) scale(0.100000,-0.100000)"
fill="#000000" stroke="none">
<path d="M4500 9789 c-925 -80 -1777 -399 -2513 -942 -364 -268 -741 -643
-1020 -1014 -475 -632 -795 -1398 -916 -2196 -69 -450 -69 -1024 0 -1474 135
-892 500 -1701 1083 -2408 124 -151 464 -491 616 -616 800 -663 1726 -1041
2765 -1129 155 -13 615 -13 770 0 1040 88 1964 465 2765 1129 148 122 489 463
611 611 664 801 1041 1725 1129 2765 13 155 13 615 0 770 -54 637 -209 1207
-479 1760 -179 367 -379 678 -645 1000 -127 154 -467 494 -621 621 -801 661
-1722 1036 -2760 1124 -139 11 -646 11 -785 -1z m135 -2200 c22 -6 61 -20 88
-31 l47 -20 0 -2434 0 -2434 130 0 130 0 0 2434 0 2434 48 20 c99 42 84 42
1313 42 1156 0 1189 -1 1251 -20 168 -52 301 -197 337 -368 8 -38 11 -669 11
-2195 0 -2358 4 -2206 -62 -2329 -63 -118 -208 -223 -342 -247 -41 -8 -429
-11 -1215 -11 l-1156 0 -51 -24 c-28 -13 -65 -41 -82 -62 -49 -58 -62 -117
-62 -271 l0 -133 -120 0 -120 0 0 141 c0 82 -5 159 -12 183 -16 55 -99 138
-154 154 -31 9 -318 12 -1191 12 -782 0 -1168 3 -1209 11 -134 24 -279 129
-342 247 -66 123 -62 -29 -62 2329 0 1522 3 2157 11 2195 36 173 181 327 350
372 46 12 236 15 1239 15 828 1 1197 -2 1225 -10z"/>
</g>
</svg>
